<mxfile host="app.diagrams.net" agent="Mozilla/5.0 (Windows NT 10.0; Win64; x64) AppleWebKit/537.36 (KHTML, like Gecko) Chrome/131.0.0.0 Safari/537.36" version="24.8.9">
  <diagram name="1 oldal" id="2GsJcBJBUaCGhlCQ27vs">
    <mxGraphModel grid="1" page="1" gridSize="10" guides="1" tooltips="1" connect="1" arrows="1" fold="1" pageScale="1" pageWidth="827" pageHeight="1169" math="0" shadow="0">
      <root>
        <mxCell id="0" />
        <mxCell id="1" parent="0" />
        <mxCell id="hhW8Z-JBQLLbQu6gxI80-1" value="" style="rounded=0;whiteSpace=wrap;html=1;hachureGap=4;fontFamily=Architects Daughter;fontSource=https%3A%2F%2Ffonts.googleapis.com%2Fcss%3Ffamily%3DArchitects%2BDaughter;labelBackgroundColor=none;" vertex="1" parent="1">
          <mxGeometry x="320" y="40" width="470" height="810" as="geometry" />
        </mxCell>
        <mxCell id="hhW8Z-JBQLLbQu6gxI80-2" value="&lt;div&gt;ClearDrive&lt;/div&gt;" style="text;html=1;align=center;verticalAlign=middle;whiteSpace=wrap;rounded=0;" vertex="1" parent="1">
          <mxGeometry x="370" y="40" width="370" height="30" as="geometry" />
        </mxCell>
        <mxCell id="hhW8Z-JBQLLbQu6gxI80-4" value="Users" style="shape=umlActor;verticalLabelPosition=bottom;verticalAlign=top;html=1;" vertex="1" parent="1">
          <mxGeometry x="140" y="170" width="50" height="100" as="geometry" />
        </mxCell>
        <mxCell id="hhW8Z-JBQLLbQu6gxI80-7" value="Admins" style="shape=umlActor;verticalLabelPosition=bottom;verticalAlign=top;html=1;" vertex="1" parent="1">
          <mxGeometry x="140" y="500" width="50" height="100" as="geometry" />
        </mxCell>
        <mxCell id="hhW8Z-JBQLLbQu6gxI80-8" value="Sign Up" style="ellipse;whiteSpace=wrap;html=1;" vertex="1" parent="1">
          <mxGeometry x="380" y="80" width="100" height="40" as="geometry" />
        </mxCell>
        <mxCell id="hhW8Z-JBQLLbQu6gxI80-9" value="Sign In" style="ellipse;whiteSpace=wrap;html=1;" vertex="1" parent="1">
          <mxGeometry x="380" y="170" width="100" height="40" as="geometry" />
        </mxCell>
        <mxCell id="hhW8Z-JBQLLbQu6gxI80-10" value="Open Ticket Interface" style="ellipse;whiteSpace=wrap;html=1;" vertex="1" parent="1">
          <mxGeometry x="379" y="600" width="100" height="40" as="geometry" />
        </mxCell>
        <mxCell id="hhW8Z-JBQLLbQu6gxI80-11" value="Open Setting Interface" style="ellipse;whiteSpace=wrap;html=1;" vertex="1" parent="1">
          <mxGeometry x="379" y="740" width="100" height="40" as="geometry" />
        </mxCell>
        <mxCell id="hhW8Z-JBQLLbQu6gxI80-13" value="Open Setting Interface" style="ellipse;whiteSpace=wrap;html=1;" vertex="1" parent="1">
          <mxGeometry x="380" y="350" width="100" height="40" as="geometry" />
        </mxCell>
        <mxCell id="hhW8Z-JBQLLbQu6gxI80-14" value="Sign In" style="ellipse;whiteSpace=wrap;html=1;" vertex="1" parent="1">
          <mxGeometry x="380" y="450" width="100" height="40" as="geometry" />
        </mxCell>
        <mxCell id="hhW8Z-JBQLLbQu6gxI80-16" value="Open Social Interface" style="ellipse;whiteSpace=wrap;html=1;" vertex="1" parent="1">
          <mxGeometry x="380" y="260" width="100" height="40" as="geometry" />
        </mxCell>
        <mxCell id="hhW8Z-JBQLLbQu6gxI80-19" value="Change View Mode" style="ellipse;whiteSpace=wrap;html=1;" vertex="1" parent="1">
          <mxGeometry x="620" y="350" width="100" height="40" as="geometry" />
        </mxCell>
        <mxCell id="hhW8Z-JBQLLbQu6gxI80-20" value="View My Profile" style="ellipse;whiteSpace=wrap;html=1;" vertex="1" parent="1">
          <mxGeometry x="620" y="180" width="100" height="40" as="geometry" />
        </mxCell>
        <mxCell id="hhW8Z-JBQLLbQu6gxI80-21" value="Check Statistic" style="ellipse;whiteSpace=wrap;html=1;" vertex="1" parent="1">
          <mxGeometry x="620" y="230" width="100" height="40" as="geometry" />
        </mxCell>
        <mxCell id="hhW8Z-JBQLLbQu6gxI80-23" value="Change View Mode" style="ellipse;whiteSpace=wrap;html=1;" vertex="1" parent="1">
          <mxGeometry x="620" y="790" width="100" height="40" as="geometry" />
        </mxCell>
        <mxCell id="hhW8Z-JBQLLbQu6gxI80-24" value="Open Social Interface" style="ellipse;whiteSpace=wrap;html=1;" vertex="1" parent="1">
          <mxGeometry x="379" y="510" width="100" height="40" as="geometry" />
        </mxCell>
        <mxCell id="hhW8Z-JBQLLbQu6gxI80-25" value="View Inbox" style="ellipse;whiteSpace=wrap;html=1;" vertex="1" parent="1">
          <mxGeometry x="620" y="510" width="100" height="40" as="geometry" />
        </mxCell>
        <mxCell id="hhW8Z-JBQLLbQu6gxI80-26" value="View Ticket List" style="ellipse;whiteSpace=wrap;html=1;" vertex="1" parent="1">
          <mxGeometry x="620" y="585" width="100" height="40" as="geometry" />
        </mxCell>
        <mxCell id="hhW8Z-JBQLLbQu6gxI80-27" value="My Ticket List" style="ellipse;whiteSpace=wrap;html=1;" vertex="1" parent="1">
          <mxGeometry x="620" y="630" width="100" height="40" as="geometry" />
        </mxCell>
        <mxCell id="hhW8Z-JBQLLbQu6gxI80-28" value="View My History" style="ellipse;whiteSpace=wrap;html=1;" vertex="1" parent="1">
          <mxGeometry x="620" y="680" width="100" height="40" as="geometry" />
        </mxCell>
        <mxCell id="hhW8Z-JBQLLbQu6gxI80-29" value="View Ticket-Done&amp;nbsp;" style="ellipse;whiteSpace=wrap;html=1;" vertex="1" parent="1">
          <mxGeometry x="620" y="730" width="100" height="40" as="geometry" />
        </mxCell>
        <mxCell id="ECX0oYRPEimwP15P8W9r-1" value="" style="endArrow=none;html=1;rounded=0;entryX=0;entryY=0.5;entryDx=0;entryDy=0;" edge="1" parent="1" target="hhW8Z-JBQLLbQu6gxI80-8">
          <mxGeometry width="50" height="50" relative="1" as="geometry">
            <mxPoint x="190" y="210" as="sourcePoint" />
            <mxPoint x="440" y="250" as="targetPoint" />
          </mxGeometry>
        </mxCell>
        <mxCell id="ECX0oYRPEimwP15P8W9r-2" value="" style="endArrow=none;html=1;rounded=0;entryX=0;entryY=0.5;entryDx=0;entryDy=0;" edge="1" parent="1" target="hhW8Z-JBQLLbQu6gxI80-9">
          <mxGeometry width="50" height="50" relative="1" as="geometry">
            <mxPoint x="190" y="210" as="sourcePoint" />
            <mxPoint x="440" y="250" as="targetPoint" />
          </mxGeometry>
        </mxCell>
        <mxCell id="ECX0oYRPEimwP15P8W9r-3" value="" style="endArrow=none;html=1;rounded=0;entryX=0;entryY=0.5;entryDx=0;entryDy=0;" edge="1" parent="1" target="hhW8Z-JBQLLbQu6gxI80-16">
          <mxGeometry width="50" height="50" relative="1" as="geometry">
            <mxPoint x="190" y="210" as="sourcePoint" />
            <mxPoint x="440" y="250" as="targetPoint" />
          </mxGeometry>
        </mxCell>
        <mxCell id="ECX0oYRPEimwP15P8W9r-4" value="" style="endArrow=none;html=1;rounded=0;entryX=0;entryY=0.5;entryDx=0;entryDy=0;" edge="1" parent="1" target="hhW8Z-JBQLLbQu6gxI80-13">
          <mxGeometry width="50" height="50" relative="1" as="geometry">
            <mxPoint x="190" y="210" as="sourcePoint" />
            <mxPoint x="440" y="250" as="targetPoint" />
          </mxGeometry>
        </mxCell>
        <mxCell id="ECX0oYRPEimwP15P8W9r-5" value="" style="endArrow=block;dashed=1;endFill=0;endSize=12;html=1;rounded=0;exitX=0;exitY=0.5;exitDx=0;exitDy=0;entryX=1;entryY=0;entryDx=0;entryDy=0;" edge="1" parent="1" source="hhW8Z-JBQLLbQu6gxI80-20" target="hhW8Z-JBQLLbQu6gxI80-16">
          <mxGeometry width="160" relative="1" as="geometry">
            <mxPoint x="330" y="280" as="sourcePoint" />
            <mxPoint x="490" y="280" as="targetPoint" />
          </mxGeometry>
        </mxCell>
        <mxCell id="ECX0oYRPEimwP15P8W9r-6" value="" style="endArrow=block;dashed=1;endFill=0;endSize=12;html=1;rounded=0;exitX=0;exitY=0.5;exitDx=0;exitDy=0;" edge="1" parent="1" source="hhW8Z-JBQLLbQu6gxI80-21">
          <mxGeometry width="160" relative="1" as="geometry">
            <mxPoint x="330" y="280" as="sourcePoint" />
            <mxPoint x="480" y="280" as="targetPoint" />
          </mxGeometry>
        </mxCell>
        <mxCell id="ECX0oYRPEimwP15P8W9r-7" value="" style="endArrow=block;dashed=1;endFill=0;endSize=12;html=1;rounded=0;exitX=0;exitY=0.5;exitDx=0;exitDy=0;entryX=1;entryY=0.5;entryDx=0;entryDy=0;" edge="1" parent="1" source="hhW8Z-JBQLLbQu6gxI80-19" target="hhW8Z-JBQLLbQu6gxI80-13">
          <mxGeometry width="160" relative="1" as="geometry">
            <mxPoint x="330" y="280" as="sourcePoint" />
            <mxPoint x="490" y="280" as="targetPoint" />
          </mxGeometry>
        </mxCell>
        <mxCell id="ECX0oYRPEimwP15P8W9r-9" value="" style="endArrow=none;html=1;rounded=0;entryX=0;entryY=0.5;entryDx=0;entryDy=0;" edge="1" parent="1" target="hhW8Z-JBQLLbQu6gxI80-14">
          <mxGeometry width="50" height="50" relative="1" as="geometry">
            <mxPoint x="190" y="540" as="sourcePoint" />
            <mxPoint x="440" y="650" as="targetPoint" />
          </mxGeometry>
        </mxCell>
        <mxCell id="ECX0oYRPEimwP15P8W9r-10" value="" style="endArrow=none;html=1;rounded=0;entryX=0;entryY=0.5;entryDx=0;entryDy=0;" edge="1" parent="1" target="hhW8Z-JBQLLbQu6gxI80-24">
          <mxGeometry width="50" height="50" relative="1" as="geometry">
            <mxPoint x="190" y="540" as="sourcePoint" />
            <mxPoint x="440" y="650" as="targetPoint" />
          </mxGeometry>
        </mxCell>
        <mxCell id="ECX0oYRPEimwP15P8W9r-11" value="" style="endArrow=none;html=1;rounded=0;entryX=0;entryY=0.5;entryDx=0;entryDy=0;" edge="1" parent="1" target="hhW8Z-JBQLLbQu6gxI80-10">
          <mxGeometry width="50" height="50" relative="1" as="geometry">
            <mxPoint x="190" y="540" as="sourcePoint" />
            <mxPoint x="440" y="650" as="targetPoint" />
          </mxGeometry>
        </mxCell>
        <mxCell id="ECX0oYRPEimwP15P8W9r-12" value="" style="endArrow=none;html=1;rounded=0;entryX=0;entryY=0.5;entryDx=0;entryDy=0;" edge="1" parent="1" target="hhW8Z-JBQLLbQu6gxI80-11">
          <mxGeometry width="50" height="50" relative="1" as="geometry">
            <mxPoint x="190" y="540" as="sourcePoint" />
            <mxPoint x="440" y="650" as="targetPoint" />
          </mxGeometry>
        </mxCell>
        <mxCell id="ECX0oYRPEimwP15P8W9r-13" value="" style="endArrow=block;dashed=1;endFill=0;endSize=12;html=1;rounded=0;exitX=0;exitY=0.5;exitDx=0;exitDy=0;entryX=1;entryY=0.5;entryDx=0;entryDy=0;" edge="1" parent="1" source="hhW8Z-JBQLLbQu6gxI80-25" target="hhW8Z-JBQLLbQu6gxI80-24">
          <mxGeometry width="160" relative="1" as="geometry">
            <mxPoint x="330" y="680" as="sourcePoint" />
            <mxPoint x="490" y="680" as="targetPoint" />
          </mxGeometry>
        </mxCell>
        <mxCell id="ECX0oYRPEimwP15P8W9r-14" value="" style="endArrow=block;dashed=1;endFill=0;endSize=12;html=1;rounded=0;entryX=1;entryY=0;entryDx=0;entryDy=0;exitX=0;exitY=0.5;exitDx=0;exitDy=0;" edge="1" parent="1" source="hhW8Z-JBQLLbQu6gxI80-26" target="hhW8Z-JBQLLbQu6gxI80-10">
          <mxGeometry width="160" relative="1" as="geometry">
            <mxPoint x="330" y="680" as="sourcePoint" />
            <mxPoint x="490" y="680" as="targetPoint" />
          </mxGeometry>
        </mxCell>
        <mxCell id="ECX0oYRPEimwP15P8W9r-15" value="" style="endArrow=block;dashed=1;endFill=0;endSize=12;html=1;rounded=0;exitX=0;exitY=0.5;exitDx=0;exitDy=0;entryX=1;entryY=0.5;entryDx=0;entryDy=0;" edge="1" parent="1" source="hhW8Z-JBQLLbQu6gxI80-27" target="hhW8Z-JBQLLbQu6gxI80-10">
          <mxGeometry width="160" relative="1" as="geometry">
            <mxPoint x="330" y="680" as="sourcePoint" />
            <mxPoint x="490" y="680" as="targetPoint" />
          </mxGeometry>
        </mxCell>
        <mxCell id="ECX0oYRPEimwP15P8W9r-16" value="" style="endArrow=block;dashed=1;endFill=0;endSize=12;html=1;rounded=0;exitX=0;exitY=0.5;exitDx=0;exitDy=0;entryX=1;entryY=1;entryDx=0;entryDy=0;" edge="1" parent="1" source="hhW8Z-JBQLLbQu6gxI80-28" target="hhW8Z-JBQLLbQu6gxI80-10">
          <mxGeometry width="160" relative="1" as="geometry">
            <mxPoint x="330" y="680" as="sourcePoint" />
            <mxPoint x="490" y="680" as="targetPoint" />
          </mxGeometry>
        </mxCell>
        <mxCell id="ECX0oYRPEimwP15P8W9r-17" value="" style="endArrow=block;dashed=1;endFill=0;endSize=12;html=1;rounded=0;exitX=0;exitY=0.5;exitDx=0;exitDy=0;entryX=0.6;entryY=1;entryDx=0;entryDy=0;entryPerimeter=0;" edge="1" parent="1" source="hhW8Z-JBQLLbQu6gxI80-29" target="hhW8Z-JBQLLbQu6gxI80-10">
          <mxGeometry width="160" relative="1" as="geometry">
            <mxPoint x="330" y="680" as="sourcePoint" />
            <mxPoint x="490" y="680" as="targetPoint" />
          </mxGeometry>
        </mxCell>
        <mxCell id="ECX0oYRPEimwP15P8W9r-18" value="" style="endArrow=block;dashed=1;endFill=0;endSize=12;html=1;rounded=0;exitX=0;exitY=0.5;exitDx=0;exitDy=0;entryX=1;entryY=0.5;entryDx=0;entryDy=0;" edge="1" parent="1" source="hhW8Z-JBQLLbQu6gxI80-23" target="hhW8Z-JBQLLbQu6gxI80-11">
          <mxGeometry width="160" relative="1" as="geometry">
            <mxPoint x="330" y="680" as="sourcePoint" />
            <mxPoint x="490" y="680" as="targetPoint" />
          </mxGeometry>
        </mxCell>
        <mxCell id="XAmQJ79bDcO72X74p97H-1" value="User Case Diagram" style="text;html=1;align=center;verticalAlign=middle;resizable=0;points=[];autosize=1;strokeColor=none;fillColor=none;" vertex="1" parent="1">
          <mxGeometry x="349" width="130" height="30" as="geometry" />
        </mxCell>
        <mxCell id="scbvG0yXFxM66pa3tta6-1" value="Call Notification" style="ellipse;whiteSpace=wrap;html=1;" vertex="1" parent="1">
          <mxGeometry x="620" y="280" width="100" height="40" as="geometry" />
        </mxCell>
        <mxCell id="scbvG0yXFxM66pa3tta6-3" value="" style="endArrow=block;dashed=1;endFill=0;endSize=12;html=1;rounded=0;exitX=0;exitY=0.5;exitDx=0;exitDy=0;entryX=1;entryY=1;entryDx=0;entryDy=0;" edge="1" parent="1" source="scbvG0yXFxM66pa3tta6-1" target="hhW8Z-JBQLLbQu6gxI80-16">
          <mxGeometry width="160" relative="1" as="geometry">
            <mxPoint x="630" y="260" as="sourcePoint" />
            <mxPoint x="490" y="290" as="targetPoint" />
          </mxGeometry>
        </mxCell>
      </root>
    </mxGraphModel>
  </diagram>
</mxfile>
